<?xml version="1.0" standalone="no"?>
<!DOCTYPE svg PUBLIC "-//W3C//DTD SVG 20010904//EN"
 "http://www.w3.org/TR/2001/REC-SVG-20010904/DTD/svg10.dtd">
<svg version="1.0" xmlns="http://www.w3.org/2000/svg"
 width="500.000000pt" height="500.000000pt" viewBox="0 0 500.000000 500.000000"
 preserveAspectRatio="xMidYMid meet">
<metadata>
Created by potrace 1.14, written by Peter Selinger 2001-2017
</metadata>
<g transform="translate(0.000000,500.000000) scale(0.100000,-0.100000)"
fill="#000000" stroke="none">
<path d="M2235 4845 c-853 -100 -1585 -650 -1912 -1435 -36 -85 -98 -265 -107
-311 -3 -13 -7 -34 -10 -46 -23 -92 -37 -174 -53 -303 -10 -83 -10 -415 0
-500 57 -486 230 -889 557 -1294 93 -115 250 -279 315 -328 17 -12 35 -28 40
-34 14 -16 147 -113 220 -160 275 -177 658 -320 942 -350 32 -3 62 -8 67 -12
16 -9 418 -10 491 -1 39 5 93 11 120 15 28 3 68 9 90 14 22 5 54 11 72 14 53
10 271 75 341 102 112 44 302 139 397 199 200 126 431 327 563 489 31 39 63
77 70 84 29 31 164 244 211 333 132 251 229 567 258 844 15 140 8 506 -12 605
-3 14 -10 52 -16 85 -30 169 -97 382 -174 550 -145 318 -418 674 -695 907
-329 277 -784 478 -1184 524 -23 3 -52 7 -66 10 -57 12 -420 12 -525 -1z"/>
</g>
</svg>
